<svg width="23" height="31" viewBox="0 0 23 31" fill="none" xmlns="http://www.w3.org/2000/svg">
<path d="M11.776 30.588C8.164 30.588 5.406 29.65 3.502 27.774C1.626 25.898 0.688 23.112 0.688 19.416V0.725999H5.56V18.87C5.56 20.466 5.742 21.81 6.106 22.902C6.498 23.966 7.142 24.778 8.038 25.338C8.962 25.87 10.208 26.136 11.776 26.136C13.344 26.136 14.576 25.856 15.472 25.296C16.396 24.736 17.054 23.924 17.446 22.86C17.838 21.796 18.034 20.466 18.034 18.87V0.725999H22.864V19.206C22.864 22.986 21.926 25.828 20.05 27.732C18.174 29.636 15.416 30.588 11.776 30.588Z" fill="url(#paint0_linear_766_358)"/>
<defs>
<linearGradient id="paint0_linear_766_358" x1="-2" y1="15.5" x2="22.5" y2="15" gradientUnits="userSpaceOnUse">
<stop stop-color="#247BF2"/>
<stop offset="1" stop-color="#07D9CE"/>
</linearGradient>
</defs>
</svg>