<svg width="64" height="64" viewBox="0 0 64 64" fill="none" xmlns="http://www.w3.org/2000/svg">
<g id="001-maintenance" clip-path="url(#clip0_669_107)">
<g id="Group">
<path id="Vector" d="M63.0625 19.2491C63.5802 19.2491 64 18.8294 64 18.3115V10.5903C64 9.03913 62.7384 7.77725 61.1875 7.77725H48.2057L44.5476 4.11863C44.2454 3.81625 43.7768 3.75675 43.4085 3.974L39.9738 6C38.8784 5.39038 37.7176 4.9095 36.5105 4.5655L35.514 0.703375C35.4071 0.28925 35.0339 0 34.6063 0H29.3937C28.9662 0 28.5929 0.28925 28.486 0.703375L27.4895 4.5655C26.2824 4.9095 25.1217 5.39038 24.0263 6L20.5914 3.97388C20.2231 3.75675 19.7546 3.81613 19.4522 4.1185L15.7941 7.77712H2.8125C1.26163 7.77725 0 9.03913 0 10.5903V51.498C0 53.0491 1.26163 54.311 2.8125 54.311H27.1796V58.2304H22.2262C20.6754 58.2304 19.4137 59.4922 19.4137 61.0434V63.0624C19.4137 63.5802 19.8335 64 20.3512 64H34.1963C34.714 64 35.1338 63.5802 35.1338 63.0624C35.1338 62.5445 34.714 62.1247 34.1963 62.1247H21.2887V61.0434C21.2887 60.5264 21.7092 60.1058 22.2262 60.1058H41.7738C42.2907 60.1058 42.7113 60.5264 42.7113 61.0434V62.1247H38.2812C37.7635 62.1247 37.3438 62.5445 37.3438 63.0624C37.3438 63.5802 37.7635 64 38.2812 64H43.6488C44.1665 64 44.5863 63.5802 44.5863 63.0624V61.0434C44.5863 59.4922 43.3246 58.2304 41.7738 58.2304H36.8201V54.311H61.1875C62.7384 54.311 64 53.0491 64 51.498V22.3984C64 21.8805 63.5802 21.4608 63.0625 21.4608C62.5448 21.4608 62.125 21.8805 62.125 22.3984V51.498C62.125 52.015 61.7045 52.4356 61.1875 52.4356H2.8125C2.2955 52.4356 1.875 52.015 1.875 51.498V10.5903C1.875 10.0732 2.2955 9.65263 2.8125 9.65263H16.0395L17.2234 11.6605H4.82C4.30225 11.6605 3.8825 12.0803 3.8825 12.5981V45.4159C3.8825 45.9338 4.30225 46.3535 4.82 46.3535H29.8512C30.369 46.3535 30.7887 45.9338 30.7887 45.4159C30.7887 44.898 30.369 44.4782 29.8512 44.4782H5.7575V13.5358H17.0632C16.7227 14.2815 16.4386 15.0525 16.2134 15.8435L12.3519 16.8401C11.9379 16.947 11.6486 17.3204 11.6486 17.748V22.9613C11.6486 23.3889 11.9379 23.7623 12.3519 23.8691L16.2134 24.8657C16.5574 26.073 17.0381 27.2339 17.6476 28.3295L15.6219 31.765C15.4047 32.1333 15.4643 32.6019 15.7665 32.9043L19.4522 36.5906C19.7545 36.893 20.2231 36.9525 20.5914 36.7352L24.0263 34.7091C25.1216 35.3188 26.2824 35.7996 27.4895 36.1436L28.486 40.0057C28.5929 40.4199 28.9662 40.7091 29.3937 40.7091H34.6063C35.0338 40.7091 35.4071 40.4199 35.514 40.0057L36.5105 36.1436C37.7176 35.7996 38.8783 35.3188 39.9738 34.7091L43.4086 36.7352C43.7768 36.9522 44.2454 36.893 44.5477 36.5906L48.2335 32.9043C48.5358 32.6019 48.5954 32.1333 48.3781 31.765L46.3524 28.3295C46.9619 27.234 47.4426 26.0731 47.7866 24.8657L51.6481 23.8691C52.0621 23.7623 52.3514 23.3889 52.3514 22.9613V17.748C52.3514 17.3204 52.0621 16.947 51.6481 16.8401L47.7866 15.8435C47.5612 15.0525 47.2772 14.2815 46.9367 13.5358H58.2425V44.4782H33.9362C33.4185 44.4782 32.9987 44.898 32.9987 45.4159C32.9987 45.9338 33.4185 46.3535 33.9362 46.3535H59.18C59.6978 46.3535 60.1175 45.9338 60.1175 45.4159V12.598C60.1175 12.0801 59.6978 11.6604 59.18 11.6604H46.7766L47.9605 9.6525H61.1875C61.7045 9.6525 62.125 10.0731 62.125 10.5901V18.3114C62.125 18.8293 62.5448 19.2491 63.0625 19.2491ZM29.0546 58.2304V54.3115H34.9453V58.2304H29.0546ZM50.4765 18.4744V22.2349L46.7879 23.1869C46.4545 23.273 46.1951 23.5347 46.1123 23.8689C45.7638 25.2734 45.2091 26.6128 44.4637 27.8498C44.286 28.1448 44.2843 28.5134 44.4591 28.81L46.3941 32.0919L43.7355 34.7509L40.4543 32.8155C40.1576 32.6405 39.7891 32.6423 39.4941 32.8201C38.2571 33.5656 36.918 34.1204 35.5137 34.4689C35.1796 34.5519 34.9179 34.8113 34.8317 35.1446L33.8799 38.8339H30.1199L29.168 35.1446C29.082 34.8113 28.8201 34.5519 28.486 34.4689C27.0818 34.1204 25.7426 33.5656 24.5056 32.8201C24.2108 32.6424 23.8421 32.6407 23.5455 32.8155L20.2642 34.7509L17.6056 32.0919L19.5406 28.81C19.7155 28.5134 19.7137 28.1448 19.536 27.8498C18.7906 26.6126 18.236 25.2734 17.8875 23.8689C17.8045 23.5347 17.5453 23.2729 17.2119 23.1869L13.5232 22.2349V18.4744L17.2119 17.5224C17.5453 17.4363 17.8046 17.1745 17.8875 16.8404C18.2348 15.4409 18.7921 14.0941 19.536 12.8595C19.7137 12.5645 19.7155 12.1959 19.5406 11.8993L17.6056 8.61738L20.2642 5.95837L23.5455 7.89375C23.842 8.06863 24.2106 8.06687 24.5056 7.88912C25.7426 7.14362 27.0818 6.58887 28.486 6.24038C28.8201 6.15737 29.0819 5.898 29.168 5.56462L30.1199 1.87538H33.8799L34.8317 5.56462C34.9177 5.898 35.1796 6.15737 35.5137 6.24038C36.918 6.58887 38.2571 7.14362 39.4941 7.88912C39.7891 8.06687 40.1577 8.06875 40.4543 7.89375L43.7355 5.95837L46.3941 8.61738L44.4591 11.8993C44.2843 12.1959 44.286 12.5645 44.4637 12.8595C45.2076 14.0942 45.765 15.4409 46.1123 16.8404C46.1953 17.1745 46.4545 17.4364 46.7879 17.5224L50.4765 18.4744Z" fill="url(#paint0_linear_669_107)"/>
<path id="Vector_2" d="M28.1171 48.553C27.5994 48.553 27.1796 48.9727 27.1796 49.4906C27.1796 50.0085 27.5994 50.4282 28.1171 50.4282H35.8828C36.4005 50.4282 36.8203 50.0085 36.8203 49.4906C36.8203 48.9727 36.4005 48.553 35.8828 48.553H28.1171Z" fill="url(#paint1_linear_669_107)"/>
<path id="Vector_3" d="M8.70325 40.7095H16.4689C16.9866 40.7095 17.4064 40.2897 17.4064 39.7719C17.4064 39.254 16.9866 38.8342 16.4689 38.8342H8.70325C8.1855 38.8342 7.76575 39.254 7.76575 39.7719C7.76575 40.2896 8.1855 40.7095 8.70325 40.7095Z" fill="url(#paint2_linear_669_107)"/>
<path id="Vector_4" d="M46.5936 39.7719C46.5936 40.2897 47.0134 40.7095 47.5311 40.7095H55.2968C55.8145 40.7095 56.2343 40.2897 56.2343 39.7719C56.2343 39.254 55.8145 38.8342 55.2968 38.8342H47.5311C47.0134 38.8341 46.5936 39.254 46.5936 39.7719Z" fill="url(#paint3_linear_669_107)"/>
<path id="Vector_5" d="M50.4764 35.8883C50.4764 36.4062 50.8961 36.8259 51.4139 36.8259H55.2966C55.8144 36.8259 56.2341 36.4062 56.2341 35.8883C56.2341 35.3704 55.8144 34.9507 55.2966 34.9507H51.4139C50.8961 34.9507 50.4764 35.3704 50.4764 35.8883Z" fill="url(#paint4_linear_669_107)"/>
<path id="Vector_6" d="M8.70325 36.8259H12.586C13.1037 36.8259 13.5235 36.4062 13.5235 35.8883C13.5235 35.3704 13.1037 34.9507 12.586 34.9507H8.70325C8.1855 34.9507 7.76575 35.3704 7.76575 35.8883C7.76575 36.4062 8.1855 36.8259 8.70325 36.8259Z" fill="url(#paint5_linear_669_107)"/>
<path id="Vector_7" d="M8.70325 32.9424H10.6446C11.1624 32.9424 11.5821 32.5226 11.5821 32.0048C11.5821 31.4869 11.1624 31.0671 10.6446 31.0671H8.70325C8.1855 31.0671 7.76575 31.4869 7.76575 32.0048C7.76575 32.5226 8.1855 32.9424 8.70325 32.9424Z" fill="url(#paint6_linear_669_107)"/>
<path id="Vector_8" d="M55.2967 32.9128C55.8145 32.9128 56.2342 32.4931 56.2342 31.9752C56.2342 31.4573 55.8145 31.0376 55.2967 31.0376H53.3553C52.8376 31.0376 52.4178 31.4573 52.4178 31.9752C52.4178 32.4931 52.8376 32.9128 53.3553 32.9128H55.2967Z" fill="url(#paint7_linear_669_107)"/>
<path id="Vector_9" d="M32 7.79639C25.0765 7.79639 19.4438 13.4299 19.4438 20.3545C19.4438 27.2791 25.0765 32.9126 32 32.9126C38.9235 32.9126 44.5561 27.279 44.5561 20.3545C44.5561 13.43 38.9235 7.79639 32 7.79639ZM29.7462 30.798V26.175C29.7462 25.8639 29.592 25.573 29.3343 25.3986L25.8637 23.0484V16.9099L27.8712 15.2648V20.3491C27.8712 20.6765 28.0418 20.9801 28.3215 21.1503L31.5127 23.0918C31.8121 23.2738 32.1878 23.2738 32.4872 23.0918L35.6785 21.1503C35.9581 20.9801 36.1287 20.6765 36.1287 20.3491V15.2648L38.1362 16.9099V23.0483L34.6656 25.3985C34.408 25.573 34.2537 25.8638 34.2537 26.1749V30.7979C32.7512 31.1171 31.2487 31.1171 29.7462 30.798ZM36.1287 30.207V26.6726L39.5993 24.3224C39.857 24.1479 40.0112 23.8571 40.0112 23.546V16.4661C40.0112 16.1851 39.8852 15.9189 39.6678 15.7409L35.7853 12.5591C34.9843 12.0251 34.25 12.4003 34.2537 13.2844V19.8221L32 21.1931L29.7462 19.822V13.2843C29.75 12.4235 28.9531 12.025 28.2146 12.559L24.3321 15.7408C24.1147 15.9189 23.9887 16.185 23.9887 16.466V23.5459C23.9887 23.857 24.143 24.1479 24.4006 24.3223L27.8712 26.6725V30.2069C24.0257 28.5889 21.3188 24.7819 21.3188 20.3544C21.3188 14.4639 26.1105 9.67164 32 9.67164C37.8895 9.67164 42.6811 14.4639 42.6811 20.3544C42.6811 24.782 39.9742 28.589 36.1287 30.207Z" fill="url(#paint8_linear_669_107)"/>
</g>
</g>
<defs>
<linearGradient id="paint0_linear_669_107" x1="1.10343e-06" y1="31.744" x2="64" y2="31.744" gradientUnits="userSpaceOnUse">
<stop stop-color="#2670F6"/>
<stop offset="1" stop-color="#00F0C5"/>
</linearGradient>
<linearGradient id="paint1_linear_669_107" x1="27.1796" y1="49.4831" x2="36.8203" y2="49.4831" gradientUnits="userSpaceOnUse">
<stop stop-color="#2670F6"/>
<stop offset="1" stop-color="#00F0C5"/>
</linearGradient>
<linearGradient id="paint2_linear_669_107" x1="7.76575" y1="39.7644" x2="17.4064" y2="39.7644" gradientUnits="userSpaceOnUse">
<stop stop-color="#2670F6"/>
<stop offset="1" stop-color="#00F0C5"/>
</linearGradient>
<linearGradient id="paint3_linear_669_107" x1="46.5936" y1="39.7644" x2="56.2343" y2="39.7644" gradientUnits="userSpaceOnUse">
<stop stop-color="#2670F6"/>
<stop offset="1" stop-color="#00F0C5"/>
</linearGradient>
<linearGradient id="paint4_linear_669_107" x1="50.4764" y1="35.8808" x2="56.2341" y2="35.8808" gradientUnits="userSpaceOnUse">
<stop stop-color="#2670F6"/>
<stop offset="1" stop-color="#00F0C5"/>
</linearGradient>
<linearGradient id="paint5_linear_669_107" x1="7.76575" y1="35.8808" x2="13.5235" y2="35.8808" gradientUnits="userSpaceOnUse">
<stop stop-color="#2670F6"/>
<stop offset="1" stop-color="#00F0C5"/>
</linearGradient>
<linearGradient id="paint6_linear_669_107" x1="7.76575" y1="31.9973" x2="11.5821" y2="31.9973" gradientUnits="userSpaceOnUse">
<stop stop-color="#2670F6"/>
<stop offset="1" stop-color="#00F0C5"/>
</linearGradient>
<linearGradient id="paint7_linear_669_107" x1="52.4178" y1="31.9677" x2="56.2342" y2="31.9677" gradientUnits="userSpaceOnUse">
<stop stop-color="#2670F6"/>
<stop offset="1" stop-color="#00F0C5"/>
</linearGradient>
<linearGradient id="paint8_linear_669_107" x1="19.4438" y1="20.2541" x2="44.5561" y2="20.2541" gradientUnits="userSpaceOnUse">
<stop stop-color="#2670F6"/>
<stop offset="1" stop-color="#00F0C5"/>
</linearGradient>
<clipPath id="clip0_669_107">
<rect width="64" height="64" fill="white"/>
</clipPath>
</defs>
</svg>
