<svg width="64" height="64" viewBox="0 0 64 64" fill="none" xmlns="http://www.w3.org/2000/svg">
<g id="030-server" clip-path="url(#clip0_669_123)">
<g id="Group">
<path id="Vector" d="M31.0718 26.1734C31.0718 27.7608 32.3637 29.0523 33.9515 29.0523C35.5394 29.0523 36.8313 27.7608 36.8313 26.1734C36.8313 24.5861 35.5394 23.2947 33.9515 23.2947C32.3637 23.2947 31.0718 24.5859 31.0718 26.1734ZM33.9515 25.1696C34.5053 25.1696 34.9558 25.6199 34.9558 26.1733C34.9558 26.7269 34.5053 27.1772 33.9515 27.1772C33.3978 27.1772 32.9473 26.7268 32.9473 26.1733C32.9473 25.6199 33.3978 25.1696 33.9515 25.1696Z" fill="url(#paint0_linear_669_123)"/>
<path id="Vector_2" d="M44.5991 26.1734C44.5991 24.5861 43.3072 23.2947 41.7193 23.2947C40.1315 23.2947 38.8396 24.5861 38.8396 26.1734C38.8396 27.7608 40.1315 29.0523 41.7193 29.0523C43.3072 29.0523 44.5991 27.7608 44.5991 26.1734ZM40.7151 26.1734C40.7151 25.6199 41.1656 25.1697 41.7193 25.1697C42.2731 25.1697 42.7236 25.6201 42.7236 26.1734C42.7236 26.7271 42.2731 27.1773 41.7193 27.1773C41.1656 27.1773 40.7151 26.7269 40.7151 26.1734Z" fill="url(#paint1_linear_669_123)"/>
<path id="Vector_3" d="M28.1257 23.2944H20.3578C19.8398 23.2944 19.42 23.7141 19.42 24.2319C19.42 24.7498 19.8398 25.1694 20.3578 25.1694H28.1257C28.6437 25.1694 29.0634 24.7498 29.0634 24.2319C29.0634 23.7141 28.6437 23.2944 28.1257 23.2944Z" fill="url(#paint2_linear_669_123)"/>
<path id="Vector_4" d="M28.1257 27.1772H20.3578C19.8398 27.1772 19.42 27.5969 19.42 28.1147C19.42 28.6326 19.8398 29.0522 20.3578 29.0522H28.1257C28.6437 29.0522 29.0634 28.6326 29.0634 28.1147C29.0634 27.5969 28.6437 27.1772 28.1257 27.1772Z" fill="url(#paint3_linear_669_123)"/>
<path id="Vector_5" d="M36.8313 37.8269C36.8313 36.2395 35.5394 34.948 33.9515 34.948C32.3637 34.948 31.0718 36.2395 31.0718 37.8269C31.0718 39.4142 32.3637 40.7056 33.9515 40.7056C35.5394 40.7056 36.8313 39.4144 36.8313 37.8269ZM32.9473 37.8269C32.9473 37.2732 33.3978 36.823 33.9515 36.823C34.5053 36.823 34.9558 37.2734 34.9558 37.8269C34.9558 38.3804 34.5053 38.8306 33.9515 38.8306C33.3978 38.8306 32.9473 38.3804 32.9473 37.8269Z" fill="url(#paint4_linear_669_123)"/>
<path id="Vector_6" d="M44.5991 37.8269C44.5991 36.2395 43.3072 34.948 41.7193 34.948C40.1315 34.948 38.8396 36.2395 38.8396 37.8269C38.8396 39.4142 40.1315 40.7056 41.7193 40.7056C43.3072 40.7056 44.5991 39.4144 44.5991 37.8269ZM40.7151 37.8269C40.7151 37.2732 41.1656 36.823 41.7193 36.823C42.2731 36.823 42.7236 37.2734 42.7236 37.8269C42.7236 38.3804 42.2731 38.8306 41.7193 38.8306C41.1656 38.8306 40.7151 38.3804 40.7151 37.8269Z" fill="url(#paint5_linear_669_123)"/>
<path id="Vector_7" d="M20.3578 36.823H28.1257C28.6437 36.823 29.0634 36.4034 29.0634 35.8855C29.0634 35.3676 28.6437 34.948 28.1257 34.948H20.3578C19.8398 34.948 19.42 35.3676 19.42 35.8855C19.42 36.4034 19.8398 36.823 20.3578 36.823Z" fill="url(#paint6_linear_669_123)"/>
<path id="Vector_8" d="M20.3578 40.7058H28.1257C28.6437 40.7058 29.0634 40.2862 29.0634 39.7683C29.0634 39.2504 28.6437 38.8308 28.1257 38.8308H20.3578C19.8398 38.8308 19.42 39.2504 19.42 39.7683C19.42 40.2861 19.8398 40.7058 20.3578 40.7058Z" fill="url(#paint7_linear_669_123)"/>
<path id="Vector_9" d="M63.0622 0.00025H47.5265C47.0085 0.00025 46.5887 0.419875 46.5887 0.93775V12.5861C46.5887 13.104 47.0085 13.5236 47.5265 13.5236H52.4144V15.5315H51.4101C50.8921 15.5315 50.4724 15.9511 50.4724 16.469C50.4724 16.9869 50.8921 17.4065 51.4101 17.4065H54.3753V25.2359H48.4831V22.2239C48.4831 20.6731 47.221 19.4114 45.6698 19.4114H35.9856C35.4676 19.4114 35.0479 19.831 35.0479 20.3489C35.0479 20.8668 35.4676 21.2864 35.9856 21.2864H45.6698C46.1869 21.2864 46.6075 21.7069 46.6075 22.2239V30.1227C46.6075 30.6397 46.1869 31.0602 45.6698 31.0602H18.3493C17.8321 31.0602 17.4115 30.6397 17.4115 30.1227V22.2239C17.4115 21.7069 17.8321 21.2864 18.3493 21.2864H31.8984C32.4164 21.2864 32.8361 20.8668 32.8361 20.3489C32.8361 19.831 32.4164 19.4114 31.8984 19.4114H18.3493C16.798 19.4114 15.5359 20.6731 15.5359 22.2239V25.2359H9.6435V17.4065H12.5898C13.1077 17.4065 13.5275 16.9869 13.5275 16.469C13.5275 15.9511 13.1077 15.5315 12.5898 15.5315H11.5855V13.5239H16.4736C16.9916 13.5239 17.4114 13.1042 17.4114 12.5864V8.71313C17.4114 8.70988 17.4115 8.70662 17.4115 8.7035C17.4115 8.70037 17.4114 8.697 17.4114 8.69388V0.9375C17.4114 0.419625 16.9916 0 16.4736 0H10.7494C10.2314 0 9.81162 0.419625 9.81162 0.9375C9.81162 1.45537 10.2314 1.875 10.7494 1.875H15.5359V7.76587H1.8755V1.875H6.66313C7.18113 1.875 7.60087 1.45537 7.60087 0.9375C7.60087 0.419625 7.18125 0 6.66325 0H0.93775C0.41975 0 0 0.419625 0 0.9375V12.5864C0 13.1042 0.41975 13.5239 0.93775 13.5239H5.82587V15.5315H4.82175C4.30375 15.5315 3.884 15.9511 3.884 16.469C3.884 16.9869 4.30375 17.4065 4.82175 17.4065H7.76788V26.1734C7.76788 26.6912 8.18762 27.1109 8.70562 27.1109H15.5358V30.1227C15.5358 30.8436 15.8085 31.502 16.2561 32.0003C15.8085 32.4985 15.5358 33.1569 15.5358 33.8778V36.8896H8.706C8.188 36.8896 7.76825 37.3092 7.76825 37.8271V46.594H0.938C0.42 46.594 0.00025 47.0136 0.00025 47.5315V59.1799C0.00025 59.6978 0.42 60.1174 0.938 60.1174H5.82587V62.125H4.82175C4.30375 62.125 3.884 62.5446 3.884 63.0625C3.884 63.5804 4.30375 64 4.82175 64H12.5896C13.1076 64 13.5274 63.5804 13.5274 63.0625C13.5274 62.5446 13.1076 62.125 12.5896 62.125H11.5854V60.1171H16.4736C16.9916 60.1171 17.4114 59.6975 17.4114 59.1796V47.5312C17.4114 47.0134 16.9916 46.5938 16.4736 46.5938H9.64375V38.7644H15.5359V41.7764C15.5359 43.3271 16.798 44.5889 18.3493 44.5889H22.1979C22.7159 44.5889 23.1356 44.1693 23.1356 43.6514C23.1356 43.1335 22.7159 42.7139 22.1979 42.7139H18.3493C17.8321 42.7139 17.4115 42.2934 17.4115 41.7764V33.8775C17.4115 33.3605 17.8321 32.94 18.3493 32.94H45.6699C46.187 32.94 46.6076 33.3605 46.6076 33.8775V41.7764C46.6076 42.2934 46.187 42.7139 45.6699 42.7139H26.2852C25.7673 42.7139 25.3475 43.1335 25.3475 43.6514C25.3475 44.1693 25.7673 44.5889 26.2852 44.5889H45.6698C47.221 44.5889 48.4831 43.3271 48.4831 41.7764V38.7644H54.3753V46.5938H47.5264C47.0084 46.5938 46.5886 47.0134 46.5886 47.5312V59.1796C46.5886 59.6975 47.0084 60.1171 47.5264 60.1171H52.4142V62.125H51.41C50.892 62.125 50.4723 62.5446 50.4723 63.0625C50.4723 63.5804 50.892 64 51.41 64H59.1779C59.6959 64 60.1156 63.5804 60.1156 63.0625C60.1156 62.5446 59.6959 62.125 59.1779 62.125H58.1736V60.1171H63.0619C63.5799 60.1171 63.9996 59.6975 63.9996 59.1796V47.5312C63.9996 47.0134 63.5799 46.5938 63.0619 46.5938H56.2505V37.8269C56.2505 37.309 55.8308 36.8894 55.3128 36.8894H48.4829V33.8775C48.4829 33.1566 48.2101 32.4982 47.7625 32C48.2101 31.5018 48.4829 30.8434 48.4829 30.1225V27.1106H55.3128C55.8308 27.1106 56.2505 26.691 56.2505 26.1731V17.4062H59.1777C59.6958 17.4062 60.1155 16.9866 60.1155 16.4688C60.1155 15.9509 59.6958 15.5312 59.1777 15.5312H58.1735V13.5234H63.0617C63.5798 13.5234 63.9995 13.1037 63.9995 12.5859V0.93775C64 0.419875 63.5802 0.00025 63.0622 0.00025ZM1.8755 9.64087H15.5359V11.6489H1.8755V9.64087ZM7.7015 13.5239H9.70988V15.5315H7.7015V13.5239ZM9.70988 62.125H7.7015V60.1171H9.70988V62.125ZM1.87575 58.2421V56.2342H15.536V58.2421H1.87575ZM15.536 54.3594H1.87575V48.4688H15.536V54.3594ZM56.2984 62.125H54.29V60.1171H56.2984V62.125ZM48.4642 58.2421V56.2342H62.1245V58.2421H48.4642ZM62.1245 54.3594H48.4642V48.4688H62.1245V54.3594ZM62.1245 1.87525V7.76587H48.4642V1.87525H62.1245ZM56.2984 15.5314H54.29V13.5235H56.2984V15.5314ZM48.4642 11.6486V9.64087H62.1245V11.6486H48.4642Z" fill="url(#paint8_linear_669_123)"/>
</g>
</g>
<defs>
<linearGradient id="paint0_linear_669_123" x1="31.0718" y1="26.1505" x2="36.8313" y2="26.1505" gradientUnits="userSpaceOnUse">
<stop stop-color="#2670F6"/>
<stop offset="1" stop-color="#00F0C5"/>
</linearGradient>
<linearGradient id="paint1_linear_669_123" x1="38.8396" y1="26.1505" x2="44.5991" y2="26.1505" gradientUnits="userSpaceOnUse">
<stop stop-color="#2670F6"/>
<stop offset="1" stop-color="#00F0C5"/>
</linearGradient>
<linearGradient id="paint2_linear_669_123" x1="19.42" y1="24.2244" x2="29.0634" y2="24.2244" gradientUnits="userSpaceOnUse">
<stop stop-color="#2670F6"/>
<stop offset="1" stop-color="#00F0C5"/>
</linearGradient>
<linearGradient id="paint3_linear_669_123" x1="19.42" y1="28.1072" x2="29.0634" y2="28.1072" gradientUnits="userSpaceOnUse">
<stop stop-color="#2670F6"/>
<stop offset="1" stop-color="#00F0C5"/>
</linearGradient>
<linearGradient id="paint4_linear_669_123" x1="31.0718" y1="37.8038" x2="36.8313" y2="37.8038" gradientUnits="userSpaceOnUse">
<stop stop-color="#2670F6"/>
<stop offset="1" stop-color="#00F0C5"/>
</linearGradient>
<linearGradient id="paint5_linear_669_123" x1="38.8396" y1="37.8038" x2="44.5991" y2="37.8038" gradientUnits="userSpaceOnUse">
<stop stop-color="#2670F6"/>
<stop offset="1" stop-color="#00F0C5"/>
</linearGradient>
<linearGradient id="paint6_linear_669_123" x1="19.42" y1="35.878" x2="29.0634" y2="35.878" gradientUnits="userSpaceOnUse">
<stop stop-color="#2670F6"/>
<stop offset="1" stop-color="#00F0C5"/>
</linearGradient>
<linearGradient id="paint7_linear_669_123" x1="19.42" y1="39.7608" x2="29.0634" y2="39.7608" gradientUnits="userSpaceOnUse">
<stop stop-color="#2670F6"/>
<stop offset="1" stop-color="#00F0C5"/>
</linearGradient>
<linearGradient id="paint8_linear_669_123" x1="1.10342e-06" y1="31.744" x2="63.9996" y2="31.744" gradientUnits="userSpaceOnUse">
<stop stop-color="#2670F6"/>
<stop offset="1" stop-color="#00F0C5"/>
</linearGradient>
<clipPath id="clip0_669_123">
<rect width="64" height="64" fill="white"/>
</clipPath>
</defs>
</svg>
