<svg width="64" height="64" viewBox="0 0 64 64" fill="none" xmlns="http://www.w3.org/2000/svg">
<g id="047-launch" clip-path="url(#clip0_669_139)">
<g id="Group">
<path id="Vector" d="M63.0625 54.3039H60.1175V18.0835C60.1175 16.5239 58.8559 15.255 57.305 15.255H40.5606C39.8464 9.72552 37.2704 4.47627 33.3505 0.534016C32.4961 -0.177984 31.6416 -0.177984 30.7871 0.533891C26.8671 4.47614 24.2911 9.72539 23.5769 15.255H17.8638C17.346 15.255 16.9263 15.6771 16.9263 16.1979C16.9263 16.7186 17.346 17.1408 17.8638 17.1408H23.4041C23.3676 17.8094 23.3615 18.4878 23.3657 19.1596H8.70375C8.186 19.1596 7.76625 19.5818 7.76625 20.1025V51.342C7.76625 51.8628 8.186 52.2849 8.70375 52.2849H55.2962C55.814 52.2849 56.2337 51.8628 56.2337 51.342V37.8079C56.2337 37.2871 55.814 36.865 55.2962 36.865C54.7785 36.865 54.3587 37.2871 54.3587 37.8079V50.3991H52.3101C51.8197 48.2874 49.7613 46.4946 47.5999 46.4946H44.5633C44.186 44.5746 42.6795 43.0583 40.7719 42.6784V39.627C40.7719 39.3819 40.6686 39.1331 40.4972 38.9603L38.2151 36.6654H39.8343C40.352 36.6654 40.7718 36.2433 40.7718 35.7225V33.5793L45.1384 36.5068C45.7061 36.8874 46.5959 36.5116 46.5959 35.7223V25.9601C46.5959 25.71 46.4971 25.4703 46.3213 25.2934L42.0971 21.0451H54.3586V33.6981C54.3586 34.2189 54.7784 34.641 55.2961 34.641C55.8139 34.641 56.2336 34.2189 56.2336 33.6981V20.1025C56.2336 19.5818 55.8139 19.1596 55.2961 19.1596H40.7718C40.776 18.4878 40.7699 17.8094 40.7334 17.1408H57.305C57.8219 17.1408 58.2425 17.5636 58.2425 18.0836V54.3039H5.7575V18.0835C5.7575 17.5636 6.178 17.1406 6.695 17.1406H13.7788C14.2965 17.1406 14.7163 16.7185 14.7163 16.1978C14.7163 15.677 14.2965 15.2549 13.7788 15.2549H6.695C5.14412 15.2549 3.8825 16.5238 3.8825 18.0834V54.3036H0.9375C0.41975 54.3036 0 54.7258 0 55.2465V61.1713C0 62.7311 1.26163 64 2.8125 64H30.0413C30.559 64 30.9788 63.5779 30.9788 63.0571C30.9788 62.5364 30.559 62.1143 30.0413 62.1143H2.8125C2.2955 62.1143 1.875 61.6914 1.875 61.1714V56.1894H19.772L21.4545 59.5735C21.6133 59.8929 21.9379 60.0946 22.293 60.0946H41.7069C42.062 60.0946 42.3866 59.8928 42.5454 59.5735L44.2279 56.1894H62.125V61.1714C62.125 61.6913 61.7045 62.1143 61.1875 62.1143H34.1263C33.6085 62.1143 33.1888 62.5364 33.1888 63.0571C33.1888 63.5779 33.6085 64 34.1263 64H61.1875C62.7384 64 64 62.7311 64 61.1715V55.2468C64 54.7259 63.5802 54.3039 63.0625 54.3039ZM23.3656 31.313L19.4165 33.9606V26.3508L23.3656 22.3791V31.313ZM25.2406 30.8748V18.5529C25.2406 15.4116 25.8733 12.2211 27.093 9.33102H37.0444C38.2675 12.229 38.8968 15.4034 38.8968 18.5529V30.8748H25.2406ZM32.0687 1.91202C33.7114 3.57264 35.0785 5.43589 36.1473 7.44539H27.9901C29.0589 5.43577 30.4261 3.57264 32.0687 1.91202ZM9.64125 21.0453H22.0403L17.8161 25.2935C17.6403 25.4704 17.5415 25.7101 17.5415 25.9603V35.7224C17.5415 36.5116 18.4313 36.8876 18.999 36.5069L23.3656 33.5794V35.7226C23.3656 36.2434 23.7854 36.6655 24.3031 36.6655H25.9223L23.6401 38.9604C23.4635 39.1385 23.3641 39.3838 23.3655 39.6325C23.3657 39.709 23.371 41.4528 23.3689 42.6924C21.5466 43.1036 19.9964 44.6631 19.5877 46.4948H16.5374C14.376 46.4948 12.3175 48.2874 11.8271 50.3993H9.64125V21.0453ZM42.7795 47.4375C42.7795 47.9583 43.1992 48.3804 43.717 48.3804H47.5998C48.7169 48.3804 49.8842 49.3078 50.343 50.3991H13.7942C14.253 49.3078 15.4204 48.3804 16.5375 48.3804H20.4202C20.938 48.3804 21.3577 47.9583 21.3577 47.4375C21.3577 45.9433 22.8174 44.4743 24.3045 44.472C24.8186 44.4711 25.2362 44.054 25.2405 43.537C25.246 42.8633 25.2446 41.4961 25.2429 40.5699H27.6066L31.2302 47.8531C31.6415 48.6108 32.5061 48.6318 32.907 47.8531L36.5306 40.5699H38.8966V43.5291C38.8966 44.0499 39.3164 44.472 39.8341 44.472C41.6535 44.472 42.7795 46.0114 42.7795 47.4375ZM34.4341 40.57L32.0687 45.3241L29.7034 40.57H34.4341ZM37.5708 38.6841H26.5666L28.5741 36.6654H35.5633L37.5708 38.6841ZM25.2406 34.7798V32.7605H38.8968V34.7798H25.2406ZM44.721 33.9606L40.7719 31.313V22.3791L44.721 26.3508V33.9606ZM41.1275 58.2091H22.8724L21.8685 56.1899H42.1314L41.1275 58.2091Z" fill="url(#paint0_linear_669_139)"/>
<path id="Vector_2" d="M32.0688 15.2551C29.4109 15.2551 27.2485 17.4298 27.2485 20.1029C27.2485 22.7759 29.4109 24.9505 32.0688 24.9505C34.7267 24.9505 36.889 22.7759 36.889 20.1029C36.889 17.4299 34.7267 15.2551 32.0688 15.2551ZM32.0688 23.0649C30.4448 23.0649 29.1235 21.7361 29.1235 20.1029C29.1235 18.4696 30.4448 17.1408 32.0688 17.1408C33.6928 17.1408 35.014 18.4696 35.014 20.1029C35.014 21.7363 33.6928 23.0649 32.0688 23.0649Z" fill="url(#paint1_linear_669_139)"/>
</g>
</g>
<defs>
<linearGradient id="paint0_linear_669_139" x1="1.10343e-06" y1="31.744" x2="64" y2="31.744" gradientUnits="userSpaceOnUse">
<stop stop-color="#2670F6"/>
<stop offset="1" stop-color="#00F0C5"/>
</linearGradient>
<linearGradient id="paint1_linear_669_139" x1="27.2485" y1="20.064" x2="36.889" y2="20.064" gradientUnits="userSpaceOnUse">
<stop stop-color="#2670F6"/>
<stop offset="1" stop-color="#00F0C5"/>
</linearGradient>
<clipPath id="clip0_669_139">
<rect width="64" height="64" fill="white"/>
</clipPath>
</defs>
</svg>
